<?xml version="1.0" encoding="UTF-8"?>
<svg version="1.1" xmlns="http://www.w3.org/2000/svg" width="96" height="96">
<path d="M0 0 C31.68 0 63.36 0 96 0 C96 31.68 96 63.36 96 96 C64.32 96 32.64 96 0 96 C0 64.32 0 32.64 0 0 Z " fill="#F3F4F3" transform="translate(0,0)"/>
<path d="M0 0 C2.31 0 4.62 0 7 0 C7 4.62 7 9.24 7 14 C10.63 14 14.26 14 18 14 C18 9.38 18 4.76 18 0 C20.54283234 -0.10871967 23.08095088 -0.18762401 25.625 -0.25 C26.33785156 -0.28351562 27.05070312 -0.31703125 27.78515625 -0.3515625 C32.99725084 -0.44719726 35.87033714 0.55241359 40 4 C42.68773977 8.03160965 42.67415933 11.26423878 42 16 C40.22432699 19.09098636 38.80656876 20.52950156 35.75 22.3125 C32.06432532 23.23391867 28.79605497 23.12867983 25 23 C25 27.95 25 32.9 25 38 C22.69 38 20.38 38 18 38 C18 32.06 18 26.12 18 20 C14.37 20 10.74 20 7 20 C7 25.94 7 31.88 7 38 C4.69 38 2.38 38 0 38 C0 25.46 0 12.92 0 0 Z " fill="#BB1527" transform="translate(29,32)"/>
<path d="M0 0 C2.31 0 4.62 0 7 0 C7 4.62 7 9.24 7 14 C10.63 14 14.26 14 18 14 C18 15.98 18 17.96 18 20 C14.37 20 10.74 20 7 20 C7 25.94 7 31.88 7 38 C4.69 38 2.38 38 0 38 C0 25.46 0 12.92 0 0 Z " fill="#1D1F1E" transform="translate(29,32)"/>
<path d="M0 0 C6.40818182 -0.36272727 6.40818182 -0.36272727 8.9375 1.1875 C10.38718434 3.66049093 10.42317323 5.17884512 10 8 C8.9375 9.8125 8.9375 9.8125 7 11 C3.3125 11.1875 3.3125 11.1875 0 11 C0 7.37 0 3.74 0 0 Z " fill="#EFE8E8" transform="translate(54,38)"/>
<path d="M0 0 C1.98 0 3.96 0 6 0 C6 0.33 6 0.66 6 1 C4.35 1 2.7 1 1 1 C1 4.3 1 7.6 1 11 C5.95 11 10.9 11 16 11 C16 11.99 16 12.98 16 14 C10.72 14 5.44 14 0 14 C0 9.38 0 4.76 0 0 Z " fill="#E6E1DD" transform="translate(54,55)"/>
<path d="M0 0 C3.63 0 7.26 0 11 0 C11 0.33 11 0.66 11 1 C7.7 1 4.4 1 1 1 C1 5.62 1 10.24 1 15 C4.3 15 7.6 15 11 15 C10.67 15.99 10.34 16.98 10 18 C6.7 18 3.4 18 0 18 C0 12.06 0 6.12 0 0 Z " fill="#C0C1BF" transform="translate(36,52)"/>
</svg>
